<?xml version="1.0" encoding="UTF-8"?>
<svg width="40px" height="48px" viewBox="0 0 40 48" version="1.1" xmlns="http://www.w3.org/2000/svg">
    <!-- Generator: Sketch 42 (36781) - http://www.bohemiancoding.com/sketch -->
    <title>P_logo</title>
    <desc>Created with Sketch.</desc>
    <defs></defs>
    <g id="Page-1" stroke="none" stroke-width="1" fill="none" fill-rule="evenodd">
        <g id="Desktop-HD" transform="translate(-40.000000, -36.000000)">
            <g id="P_logo" transform="translate(36.000000, 36.000000)">
                <g id="Group-2" transform="translate(4.061538, 0.738462)">
                    <path d="M0.0472615385,1.47692308 C0.0472615385,0.687342812 0.687342812,0.0472615385 1.47692308,0.0472615385 L21.3835562,0.0472615385 C32.0872613,0.0472615385 39.6881984,7.5848575 39.6881984,18.2475005 C39.6881984,28.9340669 32.0266725,36.5201826 21.3105043,36.5201826 L10.5738281,36.5201835 L2.56397708,45.9747257 C1.7011066,46.9848648 0.0472615385,46.3746592 0.0472615385,45.0461538 L0.0472615385,1.47692308 Z" id="P" fill="#FF5C57" fill-rule="nonzero"></path>
                    <path d="M8.7167421,19.4209641 L31.160181,19.4209641 C31.7523662,19.4209641 32.2324271,18.9409032 32.2324271,18.3487179 C32.2324271,17.7565328 31.7523662,17.2764718 31.160181,17.2764718 L8.7167421,17.2764718 C8.12455687,17.2764718 7.64449595,17.7565328 7.64449595,18.3487179 C7.64449595,18.9409032 8.12455687,19.4209641 8.7167421,19.4209641 L8.7167421,19.4209641 Z" id="Line" fill="#FFFFFF" fill-rule="nonzero"></path>
                    <path d="M8.7167421,12.2414769 L27.5402715,12.2414769 C28.1324567,12.2414769 28.6125176,11.761416 28.6125176,11.1692308 C28.6125176,10.5770455 28.1324567,10.0969846 27.5402715,10.0969846 L8.7167421,10.0969846 C8.12455687,10.0969846 7.64449595,10.5770455 7.64449595,11.1692308 C7.64449595,11.761416 8.12455687,12.2414769 8.7167421,12.2414769 L8.7167421,12.2414769 Z" id="Line" fill="#FFFFFF" fill-rule="nonzero"></path>
                    <path d="M8.7167421,26.6004512 L27.5402715,26.6004512 C28.1324567,26.6004512 28.6125176,26.1203903 28.6125176,25.5282051 C28.6125176,24.9360199 28.1324567,24.4559589 27.5402715,24.4559589 L8.7167421,24.4559589 C8.12455687,24.4559589 7.64449595,24.9360199 7.64449595,25.5282051 C7.64449595,26.1203903 8.12455687,26.6004512 8.7167421,26.6004512 L8.7167421,26.6004512 Z" id="Line" fill="#FFFFFF" fill-rule="nonzero"></path>
                </g>
            </g>
        </g>
    </g>
</svg>